<?xml version="1.0" standalone="no"?><svg xmlns="http://www.w3.org/2000/svg" viewBox="0 0 1440 320"><path fill="#2A3663" fill-opacity="1" d="M0,288L24,250.7C48,213,96,139,144,133.3C192,128,240,192,288,192C336,192,384,128,432,117.3C480,107,528,149,576,144C624,139,672,85,720,64C768,43,816,53,864,85.3C912,117,960,171,1008,176C1056,181,1104,139,1152,149.3C1200,160,1248,224,1296,218.7C1344,213,1392,139,1416,101.3L1440,64L1440,320L1416,320C1392,320,1344,320,1296,320C1248,320,1200,320,1152,320C1104,320,1056,320,1008,320C960,320,912,320,864,320C816,320,768,320,720,320C672,320,624,320,576,320C528,320,480,320,432,320C384,320,336,320,288,320C240,320,192,320,144,320C96,320,48,320,24,320L0,320Z"></path></svg>